# xmcd
#
# Track frame offsets: 
#        150
#        19575
#        41062
#        60393
#
# Disc length: 1077 seconds
#
# Revision: 0
# Processed by: cddbd v1.5.2PL0 Copyright (c) Steve Scherf et al.
# Submitted via: ExactAudioCopy v1.0b3
#
DISCID=28043304
DTITLE=Mary Spender - When Words Fail EP
DYEAR=2018
DGENRE=Rock
TTITLE0=Church Bell
TTITLE1=Foreign Dial Tones
TTITLE2=A Little Bit Of Madness
TTITLE3=9 Out Of 10
EXTD=
EXTT0=
EXTT1=
EXTT2=
EXTT3=
PLAYORDER=
